<mxfile host="65bd71144e">
    <diagram id="1sMjuBWjLNKuUER0ShGv" name="Page-1">
        <mxGraphModel dx="6459" dy="4559" grid="1" gridSize="10" guides="1" tooltips="1" connect="1" arrows="1" fold="1" page="1" pageScale="1" pageWidth="827" pageHeight="1169" math="0" shadow="0">
            <root>
                <mxCell id="0"/>
                <mxCell id="1" parent="0"/>
                <mxCell id="45" value="" style="ellipse;whiteSpace=wrap;html=1;aspect=fixed;fontFamily=Times New Roman;fontSize=50;strokeWidth=3;fillColor=none;" parent="1" vertex="1">
                    <mxGeometry x="-1000" y="-1000" width="2000" height="2000" as="geometry"/>
                </mxCell>
                <mxCell id="147" style="edgeStyle=none;html=1;exitX=0;exitY=0.5;exitDx=0;exitDy=0;entryX=1;entryY=0.5;entryDx=0;entryDy=0;endSize=10;strokeWidth=2;" edge="1" parent="1" source="46" target="56">
                    <mxGeometry relative="1" as="geometry"/>
                </mxCell>
                <mxCell id="46" value="&lt;font face=&quot;Times New Roman&quot; style=&quot;font-size: 50px&quot;&gt;1&lt;/font&gt;" style="ellipse;whiteSpace=wrap;html=1;aspect=fixed;flipV=0;direction=north;rotation=0;strokeWidth=3;fillColor=none;" parent="1" vertex="1">
                    <mxGeometry x="290" y="-790" width="80" height="80" as="geometry"/>
                </mxCell>
                <mxCell id="139" style="edgeStyle=none;html=1;exitX=0;exitY=0;exitDx=0;exitDy=0;endSize=10;strokeWidth=2;" edge="1" parent="1" source="47" target="63">
                    <mxGeometry relative="1" as="geometry"/>
                </mxCell>
                <mxCell id="47" value="&lt;font face=&quot;Times New Roman&quot; style=&quot;font-size: 50px&quot;&gt;2&lt;/font&gt;" style="ellipse;whiteSpace=wrap;html=1;aspect=fixed;flipV=0;direction=north;rotation=0;strokeWidth=3;fillColor=none;" parent="1" vertex="1">
                    <mxGeometry x="500" y="200" width="80" height="80" as="geometry"/>
                </mxCell>
                <mxCell id="134" style="edgeStyle=none;html=1;entryX=0.5;entryY=0;entryDx=0;entryDy=0;endSize=10;strokeWidth=2;" edge="1" parent="1" source="48" target="64">
                    <mxGeometry relative="1" as="geometry"/>
                </mxCell>
                <mxCell id="48" value="&lt;font face=&quot;Times New Roman&quot; style=&quot;font-size: 50px&quot;&gt;3&lt;/font&gt;" style="ellipse;whiteSpace=wrap;html=1;aspect=fixed;flipV=0;direction=north;rotation=0;strokeWidth=3;fillColor=none;" parent="1" vertex="1">
                    <mxGeometry x="-390" y="590" width="80" height="80" as="geometry"/>
                </mxCell>
                <mxCell id="150" style="edgeStyle=none;html=1;exitX=0.5;exitY=0;exitDx=0;exitDy=0;entryX=0.5;entryY=1;entryDx=0;entryDy=0;endSize=10;strokeWidth=2;" edge="1" parent="1" source="49" target="62">
                    <mxGeometry relative="1" as="geometry"/>
                </mxCell>
                <mxCell id="49" value="4" style="ellipse;whiteSpace=wrap;html=1;aspect=fixed;flipV=0;direction=north;rotation=0;fontFamily=Times New Roman;fontSize=50;strokeWidth=3;fillColor=none;" parent="1" vertex="1">
                    <mxGeometry x="900" y="-250" width="80" height="80" as="geometry"/>
                </mxCell>
                <mxCell id="148" style="edgeStyle=none;html=1;exitX=0;exitY=1;exitDx=0;exitDy=0;entryX=0.5;entryY=0;entryDx=0;entryDy=0;endSize=10;strokeWidth=2;" edge="1" parent="1" source="50" target="46">
                    <mxGeometry relative="1" as="geometry"/>
                </mxCell>
                <mxCell id="50" value="&lt;font face=&quot;Times New Roman&quot; style=&quot;font-size: 50px&quot;&gt;5&lt;/font&gt;" style="ellipse;whiteSpace=wrap;html=1;aspect=fixed;flipV=0;direction=north;rotation=0;strokeWidth=3;fillColor=none;" parent="1" vertex="1">
                    <mxGeometry x="-160" y="-920" width="80" height="80" as="geometry"/>
                </mxCell>
                <mxCell id="51" value="&lt;font face=&quot;Times New Roman&quot; style=&quot;font-size: 50px&quot;&gt;6&lt;/font&gt;" style="ellipse;whiteSpace=wrap;html=1;aspect=fixed;flipV=0;direction=north;rotation=0;strokeWidth=3;fillColor=none;" parent="1" vertex="1">
                    <mxGeometry x="120" y="340" width="80" height="80" as="geometry"/>
                </mxCell>
                <mxCell id="52" value="&lt;font face=&quot;Times New Roman&quot; style=&quot;font-size: 50px&quot;&gt;7&lt;/font&gt;" style="ellipse;whiteSpace=wrap;html=1;aspect=fixed;flipV=0;direction=north;rotation=0;strokeWidth=3;fillColor=none;" parent="1" vertex="1">
                    <mxGeometry x="-60" y="450" width="80" height="80" as="geometry"/>
                </mxCell>
                <mxCell id="126" style="edgeStyle=none;html=1;exitX=1;exitY=0.5;exitDx=0;exitDy=0;entryX=0;entryY=0.5;entryDx=0;entryDy=0;strokeWidth=2;endSize=10;" edge="1" parent="1" source="53" target="61">
                    <mxGeometry relative="1" as="geometry"/>
                </mxCell>
                <mxCell id="53" value="&lt;font face=&quot;Times New Roman&quot; style=&quot;font-size: 50px&quot;&gt;8&lt;/font&gt;" style="ellipse;whiteSpace=wrap;html=1;aspect=fixed;flipV=0;direction=north;rotation=0;strokeWidth=3;fillColor=none;" parent="1" vertex="1">
                    <mxGeometry x="160" y="140" width="80" height="80" as="geometry"/>
                </mxCell>
                <mxCell id="144" style="edgeStyle=none;html=1;exitX=1;exitY=1;exitDx=0;exitDy=0;endSize=10;strokeWidth=2;" edge="1" parent="1" source="54" target="58">
                    <mxGeometry relative="1" as="geometry"/>
                </mxCell>
                <mxCell id="54" value="&lt;font face=&quot;Times New Roman&quot; style=&quot;font-size: 50px&quot;&gt;9&lt;/font&gt;" style="ellipse;whiteSpace=wrap;html=1;aspect=fixed;flipV=0;direction=north;rotation=0;strokeWidth=3;fillColor=none;" parent="1" vertex="1">
                    <mxGeometry x="-600" y="-250" width="80" height="80" as="geometry"/>
                </mxCell>
                <mxCell id="55" value="&lt;font face=&quot;Times New Roman&quot; style=&quot;font-size: 50px&quot;&gt;10&lt;/font&gt;" style="ellipse;whiteSpace=wrap;html=1;aspect=fixed;flipV=0;direction=north;rotation=0;strokeWidth=3;fillColor=none;" parent="1" vertex="1">
                    <mxGeometry x="-160" y="-20" width="80" height="80" as="geometry"/>
                </mxCell>
                <mxCell id="146" style="edgeStyle=none;html=1;exitX=0;exitY=0;exitDx=0;exitDy=0;entryX=1;entryY=1;entryDx=0;entryDy=0;endSize=10;strokeWidth=2;" edge="1" parent="1" source="56" target="61">
                    <mxGeometry relative="1" as="geometry"/>
                </mxCell>
                <mxCell id="56" value="&lt;font style=&quot;font-size: 50px&quot; face=&quot;Times New Roman&quot;&gt;11&lt;/font&gt;" style="ellipse;whiteSpace=wrap;html=1;aspect=fixed;flipV=0;direction=north;rotation=0;strokeWidth=3;fillColor=none;" parent="1" vertex="1">
                    <mxGeometry x="320" y="-600" width="80" height="80" as="geometry"/>
                </mxCell>
                <mxCell id="145" style="edgeStyle=none;html=1;exitX=0;exitY=0.5;exitDx=0;exitDy=0;endSize=10;strokeWidth=2;" edge="1" parent="1" source="57">
                    <mxGeometry relative="1" as="geometry">
                        <mxPoint x="-560" y="-250" as="targetPoint"/>
                    </mxGeometry>
                </mxCell>
                <mxCell id="57" value="&lt;font face=&quot;Times New Roman&quot; style=&quot;font-size: 50px&quot;&gt;12&lt;/font&gt;" style="ellipse;whiteSpace=wrap;html=1;aspect=fixed;flipV=0;direction=north;rotation=0;strokeWidth=3;fillColor=none;" parent="1" vertex="1">
                    <mxGeometry x="-650" y="-450" width="80" height="80" as="geometry"/>
                </mxCell>
                <mxCell id="143" style="edgeStyle=none;html=1;exitX=0;exitY=0.5;exitDx=0;exitDy=0;endSize=10;strokeWidth=2;entryX=1;entryY=0;entryDx=0;entryDy=0;" edge="1" parent="1" source="58" target="55">
                    <mxGeometry relative="1" as="geometry">
                        <mxPoint x="-120" y="-10" as="targetPoint"/>
                    </mxGeometry>
                </mxCell>
                <mxCell id="58" value="&lt;font face=&quot;Times New Roman&quot; style=&quot;font-size: 50px&quot;&gt;13&lt;/font&gt;" style="ellipse;whiteSpace=wrap;html=1;aspect=fixed;flipV=0;direction=north;rotation=0;strokeWidth=3;fillColor=none;" parent="1" vertex="1">
                    <mxGeometry x="-290" y="-440" width="80" height="80" as="geometry"/>
                </mxCell>
                <mxCell id="140" style="edgeStyle=none;html=1;exitX=1;exitY=0;exitDx=0;exitDy=0;entryX=0;entryY=1;entryDx=0;entryDy=0;endSize=10;strokeWidth=2;" edge="1" parent="1" source="59" target="63">
                    <mxGeometry relative="1" as="geometry"/>
                </mxCell>
                <mxCell id="59" value="&lt;font face=&quot;Times New Roman&quot; style=&quot;font-size: 50px&quot;&gt;14&lt;/font&gt;" style="ellipse;whiteSpace=wrap;html=1;aspect=fixed;flipV=0;direction=north;rotation=0;strokeWidth=3;fillColor=none;" parent="1" vertex="1">
                    <mxGeometry x="590" y="560" width="80" height="80" as="geometry"/>
                </mxCell>
                <mxCell id="137" style="edgeStyle=none;html=1;exitX=0.5;exitY=1;exitDx=0;exitDy=0;endSize=10;strokeWidth=2;entryX=1;entryY=0;entryDx=0;entryDy=0;" edge="1" parent="1" source="60" target="48">
                    <mxGeometry relative="1" as="geometry">
                        <mxPoint x="-390" y="610" as="targetPoint"/>
                    </mxGeometry>
                </mxCell>
                <mxCell id="60" value="&lt;font face=&quot;Times New Roman&quot; style=&quot;font-size: 50px&quot;&gt;15&lt;/font&gt;" style="ellipse;whiteSpace=wrap;html=1;aspect=fixed;flipV=0;direction=north;rotation=0;strokeWidth=3;fillColor=none;" parent="1" vertex="1">
                    <mxGeometry x="-640" y="420" width="80" height="80" as="geometry"/>
                </mxCell>
                <mxCell id="61" value="&lt;font face=&quot;Times New Roman&quot; style=&quot;font-size: 50px&quot;&gt;16&lt;/font&gt;" style="ellipse;whiteSpace=wrap;html=1;aspect=fixed;flipV=0;direction=north;rotation=0;strokeWidth=3;fillColor=none;" parent="1" vertex="1">
                    <mxGeometry x="90" y="-130" width="80" height="80" as="geometry"/>
                </mxCell>
                <mxCell id="149" style="edgeStyle=none;html=1;exitX=1;exitY=0;exitDx=0;exitDy=0;endSize=10;strokeWidth=2;" edge="1" parent="1" source="62">
                    <mxGeometry relative="1" as="geometry">
                        <mxPoint x="390" y="-530" as="targetPoint"/>
                    </mxGeometry>
                </mxCell>
                <mxCell id="62" value="&lt;font face=&quot;Times New Roman&quot; style=&quot;font-size: 50px&quot;&gt;17&lt;/font&gt;" style="ellipse;whiteSpace=wrap;html=1;aspect=fixed;flipV=0;direction=north;rotation=0;strokeWidth=3;fillColor=none;" parent="1" vertex="1">
                    <mxGeometry x="690" y="-250" width="80" height="80" as="geometry"/>
                </mxCell>
                <mxCell id="63" value="&lt;font face=&quot;Times New Roman&quot; style=&quot;font-size: 50px&quot;&gt;18&lt;/font&gt;" style="ellipse;whiteSpace=wrap;html=1;aspect=fixed;flipV=0;direction=north;rotation=0;strokeWidth=3;fillColor=none;" parent="1" vertex="1">
                    <mxGeometry x="330" y="390" width="80" height="80" as="geometry"/>
                </mxCell>
                <mxCell id="64" value="&lt;font face=&quot;Times New Roman&quot;&gt;&lt;span style=&quot;font-size: 50px&quot;&gt;19&lt;br&gt;&lt;/span&gt;&lt;/font&gt;" style="ellipse;whiteSpace=wrap;html=1;aspect=fixed;flipV=0;direction=north;rotation=0;strokeWidth=3;fillColor=none;" parent="1" vertex="1">
                    <mxGeometry x="-100" y="640" width="80" height="80" as="geometry"/>
                </mxCell>
                <mxCell id="65" value="&lt;font face=&quot;Times New Roman&quot; style=&quot;font-size: 50px&quot;&gt;20&lt;/font&gt;" style="ellipse;whiteSpace=wrap;html=1;aspect=fixed;flipV=0;direction=north;rotation=0;strokeWidth=3;fillColor=none;" parent="1" vertex="1">
                    <mxGeometry x="150" y="710" width="80" height="80" as="geometry"/>
                </mxCell>
                <mxCell id="66" value="" style="rounded=0;whiteSpace=wrap;html=1;fontFamily=Times New Roman;fontSize=50;fillColor=none;" parent="1" vertex="1">
                    <mxGeometry x="620" y="-1040" width="410" height="250" as="geometry"/>
                </mxCell>
                <mxCell id="67" value="" style="ellipse;whiteSpace=wrap;html=1;aspect=fixed;flipV=0;direction=north;rotation=0;strokeWidth=3;fillColor=none;" parent="1" vertex="1">
                    <mxGeometry x="640" y="-1015" width="80" height="80" as="geometry"/>
                </mxCell>
                <mxCell id="68" value="&lt;font face=&quot;宋体&quot;&gt;传感器节点&lt;/font&gt;" style="text;html=1;strokeColor=none;fillColor=none;align=center;verticalAlign=middle;whiteSpace=wrap;rounded=0;fontFamily=Times New Roman;fontSize=50;" parent="1" vertex="1">
                    <mxGeometry x="730" y="-990" width="300" height="30" as="geometry"/>
                </mxCell>
                <mxCell id="69" value="" style="group;strokeWidth=5;" parent="1" vertex="1" connectable="0">
                    <mxGeometry x="-1130" y="-1151" width="2276" height="2220" as="geometry"/>
                </mxCell>
                <mxCell id="70" value="" style="group" parent="69" vertex="1" connectable="0">
                    <mxGeometry y="2136" width="2276" height="84" as="geometry"/>
                </mxCell>
                <mxCell id="71" value="" style="endArrow=classic;html=1;fontFamily=宋体;fontSize=50;strokeWidth=5;" parent="70" edge="1">
                    <mxGeometry width="50" height="50" relative="1" as="geometry">
                        <mxPoint x="110" y="14" as="sourcePoint"/>
                        <mxPoint x="2210" y="14" as="targetPoint"/>
                    </mxGeometry>
                </mxCell>
                <mxCell id="72" value="&lt;font face=&quot;Times New Roman&quot;&gt;-100&lt;/font&gt;" style="text;html=1;strokeColor=none;fillColor=none;align=center;verticalAlign=middle;whiteSpace=wrap;rounded=0;fontFamily=宋体;fontSize=50;" parent="70" vertex="1">
                    <mxGeometry y="54" width="60" height="30" as="geometry"/>
                </mxCell>
                <mxCell id="73" value="" style="group;rotation=90;" parent="70" vertex="1" connectable="0">
                    <mxGeometry x="1097.5" y="-976" width="25" height="2000" as="geometry"/>
                </mxCell>
                <mxCell id="74" value="" style="endArrow=none;html=1;fontFamily=Times New Roman;fontSize=50;strokeWidth=5;" parent="73" edge="1">
                    <mxGeometry width="50" height="50" relative="1" as="geometry">
                        <mxPoint x="-987" y="988" as="sourcePoint"/>
                        <mxPoint x="-987" y="1013" as="targetPoint"/>
                    </mxGeometry>
                </mxCell>
                <mxCell id="75" value="" style="endArrow=none;html=1;fontFamily=Times New Roman;fontSize=50;strokeWidth=5;" parent="73" edge="1">
                    <mxGeometry width="50" height="50" relative="1" as="geometry">
                        <mxPoint x="13" y="988" as="sourcePoint"/>
                        <mxPoint x="13" y="1013" as="targetPoint"/>
                    </mxGeometry>
                </mxCell>
                <mxCell id="76" value="" style="endArrow=none;html=1;fontFamily=Times New Roman;fontSize=50;strokeWidth=5;" parent="73" edge="1">
                    <mxGeometry width="50" height="50" relative="1" as="geometry">
                        <mxPoint x="-487" y="988" as="sourcePoint"/>
                        <mxPoint x="-487" y="1013" as="targetPoint"/>
                    </mxGeometry>
                </mxCell>
                <mxCell id="77" value="" style="endArrow=none;html=1;fontFamily=Times New Roman;fontSize=50;strokeWidth=5;" parent="73" edge="1">
                    <mxGeometry width="50" height="50" relative="1" as="geometry">
                        <mxPoint x="513" y="988" as="sourcePoint"/>
                        <mxPoint x="513" y="1013" as="targetPoint"/>
                    </mxGeometry>
                </mxCell>
                <mxCell id="78" value="" style="group;rotation=90;" parent="73" vertex="1" connectable="0">
                    <mxGeometry x="-250" y="500" width="25" height="1000" as="geometry"/>
                </mxCell>
                <mxCell id="79" value="" style="endArrow=none;html=1;fontFamily=Times New Roman;fontSize=50;strokeWidth=5;" parent="78" edge="1">
                    <mxGeometry width="50" height="50" relative="1" as="geometry">
                        <mxPoint x="-487" y="488" as="sourcePoint"/>
                        <mxPoint x="-487" y="513" as="targetPoint"/>
                    </mxGeometry>
                </mxCell>
                <mxCell id="80" value="" style="endArrow=none;html=1;fontFamily=Times New Roman;fontSize=50;strokeWidth=5;" parent="78" edge="1">
                    <mxGeometry width="50" height="50" relative="1" as="geometry">
                        <mxPoint x="513" y="487" as="sourcePoint"/>
                        <mxPoint x="513" y="513" as="targetPoint"/>
                    </mxGeometry>
                </mxCell>
                <mxCell id="81" value="" style="group;rotation=90;" parent="73" vertex="1" connectable="0">
                    <mxGeometry x="250" y="500" width="25" height="1000" as="geometry"/>
                </mxCell>
                <mxCell id="82" value="" style="endArrow=none;html=1;fontFamily=Times New Roman;fontSize=50;strokeWidth=5;" parent="81" edge="1">
                    <mxGeometry width="50" height="50" relative="1" as="geometry">
                        <mxPoint x="-487" y="488" as="sourcePoint"/>
                        <mxPoint x="-487" y="513" as="targetPoint"/>
                    </mxGeometry>
                </mxCell>
                <mxCell id="83" value="" style="endArrow=none;html=1;fontFamily=Times New Roman;fontSize=50;strokeWidth=5;" parent="81" edge="1">
                    <mxGeometry width="50" height="50" relative="1" as="geometry">
                        <mxPoint x="513" y="487" as="sourcePoint"/>
                        <mxPoint x="513" y="513" as="targetPoint"/>
                    </mxGeometry>
                </mxCell>
                <mxCell id="84" value="" style="endArrow=none;html=1;fontFamily=Times New Roman;fontSize=50;strokeWidth=5;" parent="73" edge="1">
                    <mxGeometry width="50" height="50" relative="1" as="geometry">
                        <mxPoint x="1013" y="987" as="sourcePoint"/>
                        <mxPoint x="1013" y="1012" as="targetPoint"/>
                    </mxGeometry>
                </mxCell>
                <mxCell id="85" value="&lt;font face=&quot;Times New Roman&quot;&gt;100&lt;/font&gt;" style="text;html=1;strokeColor=none;fillColor=none;align=center;verticalAlign=middle;whiteSpace=wrap;rounded=0;fontFamily=宋体;fontSize=50;" parent="70" vertex="1">
                    <mxGeometry x="2080" y="54" width="60" height="30" as="geometry"/>
                </mxCell>
                <mxCell id="86" value="&lt;font face=&quot;Times New Roman&quot;&gt;0&lt;/font&gt;" style="text;html=1;strokeColor=none;fillColor=none;align=center;verticalAlign=middle;whiteSpace=wrap;rounded=0;fontFamily=宋体;fontSize=50;" parent="70" vertex="1">
                    <mxGeometry x="1080" y="54" width="60" height="30" as="geometry"/>
                </mxCell>
                <mxCell id="87" value="&lt;font face=&quot;Times New Roman&quot;&gt;75&lt;/font&gt;" style="text;html=1;strokeColor=none;fillColor=none;align=center;verticalAlign=middle;whiteSpace=wrap;rounded=0;fontFamily=宋体;fontSize=50;" parent="70" vertex="1">
                    <mxGeometry x="1830" y="54" width="60" height="30" as="geometry"/>
                </mxCell>
                <mxCell id="88" value="&lt;font face=&quot;Times New Roman&quot;&gt;50&lt;/font&gt;" style="text;html=1;strokeColor=none;fillColor=none;align=center;verticalAlign=middle;whiteSpace=wrap;rounded=0;fontFamily=宋体;fontSize=50;" parent="70" vertex="1">
                    <mxGeometry x="1580" y="54" width="60" height="30" as="geometry"/>
                </mxCell>
                <mxCell id="89" value="&lt;font face=&quot;Times New Roman&quot;&gt;25&lt;/font&gt;" style="text;html=1;strokeColor=none;fillColor=none;align=center;verticalAlign=middle;whiteSpace=wrap;rounded=0;fontFamily=宋体;fontSize=50;" parent="70" vertex="1">
                    <mxGeometry x="1330" y="54" width="60" height="30" as="geometry"/>
                </mxCell>
                <mxCell id="90" value="&lt;font face=&quot;Times New Roman&quot;&gt;-25&lt;/font&gt;" style="text;html=1;strokeColor=none;fillColor=none;align=center;verticalAlign=middle;whiteSpace=wrap;rounded=0;fontFamily=宋体;fontSize=50;" parent="70" vertex="1">
                    <mxGeometry x="830" y="54" width="60" height="30" as="geometry"/>
                </mxCell>
                <mxCell id="91" value="&lt;font face=&quot;Times New Roman&quot;&gt;-50&lt;/font&gt;" style="text;html=1;strokeColor=none;fillColor=none;align=center;verticalAlign=middle;whiteSpace=wrap;rounded=0;fontFamily=宋体;fontSize=50;" parent="70" vertex="1">
                    <mxGeometry x="580" y="54" width="60" height="30" as="geometry"/>
                </mxCell>
                <mxCell id="92" value="&lt;font face=&quot;Times New Roman&quot;&gt;-75&lt;/font&gt;" style="text;html=1;strokeColor=none;fillColor=none;align=center;verticalAlign=middle;whiteSpace=wrap;rounded=0;fontFamily=宋体;fontSize=50;" parent="70" vertex="1">
                    <mxGeometry x="320" y="54" width="60" height="30" as="geometry"/>
                </mxCell>
                <mxCell id="93" value="米" style="text;html=1;strokeColor=none;fillColor=none;align=center;verticalAlign=middle;whiteSpace=wrap;rounded=0;fontFamily=宋体;fontSize=50;" parent="70" vertex="1">
                    <mxGeometry x="2216" width="60" height="30" as="geometry"/>
                </mxCell>
                <mxCell id="94" value="" style="group" parent="69" vertex="1" connectable="0">
                    <mxGeometry width="140" height="2150" as="geometry"/>
                </mxCell>
                <mxCell id="95" value="" style="endArrow=classic;html=1;fontFamily=宋体;fontSize=50;strokeWidth=5;" parent="94" edge="1">
                    <mxGeometry width="50" height="50" relative="1" as="geometry">
                        <mxPoint x="110" y="2150" as="sourcePoint"/>
                        <mxPoint x="110" y="50" as="targetPoint"/>
                    </mxGeometry>
                </mxCell>
                <mxCell id="96" value="" style="group" parent="94" vertex="1" connectable="0">
                    <mxGeometry x="85" y="150" width="25" height="2000" as="geometry"/>
                </mxCell>
                <mxCell id="97" value="" style="endArrow=none;html=1;fontFamily=Times New Roman;fontSize=50;strokeWidth=5;" parent="96" edge="1">
                    <mxGeometry width="50" height="50" relative="1" as="geometry">
                        <mxPoint y="2000" as="sourcePoint"/>
                        <mxPoint x="25" y="2000" as="targetPoint"/>
                    </mxGeometry>
                </mxCell>
                <mxCell id="98" value="" style="endArrow=none;html=1;fontFamily=Times New Roman;fontSize=50;strokeWidth=5;" parent="96" edge="1">
                    <mxGeometry width="50" height="50" relative="1" as="geometry">
                        <mxPoint y="1000" as="sourcePoint"/>
                        <mxPoint x="25" y="1000" as="targetPoint"/>
                    </mxGeometry>
                </mxCell>
                <mxCell id="99" value="" style="endArrow=none;html=1;fontFamily=Times New Roman;fontSize=50;strokeWidth=5;" parent="96" edge="1">
                    <mxGeometry width="50" height="50" relative="1" as="geometry">
                        <mxPoint y="1500" as="sourcePoint"/>
                        <mxPoint x="25" y="1500" as="targetPoint"/>
                    </mxGeometry>
                </mxCell>
                <mxCell id="100" value="" style="endArrow=none;html=1;fontFamily=Times New Roman;fontSize=50;strokeWidth=5;" parent="96" edge="1">
                    <mxGeometry width="50" height="50" relative="1" as="geometry">
                        <mxPoint y="500" as="sourcePoint"/>
                        <mxPoint x="25" y="500" as="targetPoint"/>
                    </mxGeometry>
                </mxCell>
                <mxCell id="101" value="" style="group" parent="96" vertex="1" connectable="0">
                    <mxGeometry y="750" width="25" height="1000" as="geometry"/>
                </mxCell>
                <mxCell id="102" value="" style="endArrow=none;html=1;fontFamily=Times New Roman;fontSize=50;strokeWidth=5;" parent="101" edge="1">
                    <mxGeometry width="50" height="50" relative="1" as="geometry">
                        <mxPoint y="1000" as="sourcePoint"/>
                        <mxPoint x="25" y="1000" as="targetPoint"/>
                    </mxGeometry>
                </mxCell>
                <mxCell id="103" value="" style="endArrow=none;html=1;fontFamily=Times New Roman;fontSize=50;strokeWidth=5;" parent="101" edge="1">
                    <mxGeometry width="50" height="50" relative="1" as="geometry">
                        <mxPoint as="sourcePoint"/>
                        <mxPoint x="25" as="targetPoint"/>
                    </mxGeometry>
                </mxCell>
                <mxCell id="104" value="" style="group" parent="96" vertex="1" connectable="0">
                    <mxGeometry y="250" width="25" height="1000" as="geometry"/>
                </mxCell>
                <mxCell id="105" value="" style="endArrow=none;html=1;fontFamily=Times New Roman;fontSize=50;strokeWidth=5;" parent="104" edge="1">
                    <mxGeometry width="50" height="50" relative="1" as="geometry">
                        <mxPoint y="1000" as="sourcePoint"/>
                        <mxPoint x="25" y="1000" as="targetPoint"/>
                    </mxGeometry>
                </mxCell>
                <mxCell id="106" value="" style="endArrow=none;html=1;fontFamily=Times New Roman;fontSize=50;strokeWidth=5;" parent="104" edge="1">
                    <mxGeometry width="50" height="50" relative="1" as="geometry">
                        <mxPoint as="sourcePoint"/>
                        <mxPoint x="25" as="targetPoint"/>
                    </mxGeometry>
                </mxCell>
                <mxCell id="107" value="" style="endArrow=none;html=1;fontFamily=Times New Roman;fontSize=50;strokeWidth=5;" parent="96" edge="1">
                    <mxGeometry width="50" height="50" relative="1" as="geometry">
                        <mxPoint as="sourcePoint"/>
                        <mxPoint x="25" as="targetPoint"/>
                    </mxGeometry>
                </mxCell>
                <mxCell id="108" value="&lt;font face=&quot;Times New Roman&quot;&gt;100&lt;/font&gt;" style="text;html=1;strokeColor=none;fillColor=none;align=center;verticalAlign=middle;whiteSpace=wrap;rounded=0;fontFamily=宋体;fontSize=50;" parent="94" vertex="1">
                    <mxGeometry y="135" width="60" height="30" as="geometry"/>
                </mxCell>
                <mxCell id="109" value="&lt;font face=&quot;Times New Roman&quot;&gt;0&lt;/font&gt;" style="text;html=1;strokeColor=none;fillColor=none;align=center;verticalAlign=middle;whiteSpace=wrap;rounded=0;fontFamily=宋体;fontSize=50;" parent="94" vertex="1">
                    <mxGeometry y="1135" width="60" height="30" as="geometry"/>
                </mxCell>
                <mxCell id="110" value="&lt;font face=&quot;Times New Roman&quot;&gt;75&lt;/font&gt;" style="text;html=1;strokeColor=none;fillColor=none;align=center;verticalAlign=middle;whiteSpace=wrap;rounded=0;fontFamily=宋体;fontSize=50;" parent="94" vertex="1">
                    <mxGeometry y="385" width="60" height="30" as="geometry"/>
                </mxCell>
                <mxCell id="111" value="&lt;font face=&quot;Times New Roman&quot;&gt;50&lt;/font&gt;" style="text;html=1;strokeColor=none;fillColor=none;align=center;verticalAlign=middle;whiteSpace=wrap;rounded=0;fontFamily=宋体;fontSize=50;" parent="94" vertex="1">
                    <mxGeometry y="630" width="60" height="30" as="geometry"/>
                </mxCell>
                <mxCell id="112" value="&lt;font face=&quot;Times New Roman&quot;&gt;25&lt;/font&gt;" style="text;html=1;strokeColor=none;fillColor=none;align=center;verticalAlign=middle;whiteSpace=wrap;rounded=0;fontFamily=宋体;fontSize=50;" parent="94" vertex="1">
                    <mxGeometry y="880" width="60" height="30" as="geometry"/>
                </mxCell>
                <mxCell id="113" value="&lt;font face=&quot;Times New Roman&quot;&gt;-25&lt;/font&gt;" style="text;html=1;strokeColor=none;fillColor=none;align=center;verticalAlign=middle;whiteSpace=wrap;rounded=0;fontFamily=宋体;fontSize=50;" parent="94" vertex="1">
                    <mxGeometry y="1380" width="60" height="30" as="geometry"/>
                </mxCell>
                <mxCell id="114" value="&lt;font face=&quot;Times New Roman&quot;&gt;-50&lt;/font&gt;" style="text;html=1;strokeColor=none;fillColor=none;align=center;verticalAlign=middle;whiteSpace=wrap;rounded=0;fontFamily=宋体;fontSize=50;" parent="94" vertex="1">
                    <mxGeometry y="1630" width="60" height="30" as="geometry"/>
                </mxCell>
                <mxCell id="115" value="&lt;font face=&quot;Times New Roman&quot;&gt;-75&lt;/font&gt;" style="text;html=1;strokeColor=none;fillColor=none;align=center;verticalAlign=middle;whiteSpace=wrap;rounded=0;fontFamily=宋体;fontSize=50;" parent="94" vertex="1">
                    <mxGeometry y="1880" width="60" height="30" as="geometry"/>
                </mxCell>
                <mxCell id="116" value="米" style="text;html=1;strokeColor=none;fillColor=none;align=center;verticalAlign=middle;whiteSpace=wrap;rounded=0;fontFamily=宋体;fontSize=50;" parent="94" vertex="1">
                    <mxGeometry x="80" width="60" height="30" as="geometry"/>
                </mxCell>
                <mxCell id="119" value="&lt;font face=&quot;宋体&quot;&gt;悬停节点&lt;/font&gt;" style="text;html=1;strokeColor=none;fillColor=none;align=center;verticalAlign=middle;whiteSpace=wrap;rounded=0;fontFamily=Times New Roman;fontSize=50;" parent="69" vertex="1">
                    <mxGeometry x="1840" y="285" width="300" height="30" as="geometry"/>
                </mxCell>
                <mxCell id="124" value="" style="rhombus;whiteSpace=wrap;html=1;strokeWidth=2;fillColor=none;" vertex="1" parent="69">
                    <mxGeometry x="1225" y="1026" width="70" height="70" as="geometry"/>
                </mxCell>
                <mxCell id="151" value="&lt;font face=&quot;Times New Roman&quot; style=&quot;font-size: 40px&quot;&gt;100%&lt;/font&gt;" style="text;html=1;strokeColor=none;fillColor=none;align=center;verticalAlign=middle;whiteSpace=wrap;rounded=0;" vertex="1" parent="69">
                    <mxGeometry x="570" y="761" width="60" height="30" as="geometry"/>
                </mxCell>
                <mxCell id="153" value="&lt;font face=&quot;Times New Roman&quot; style=&quot;font-size: 40px&quot;&gt;100%&lt;/font&gt;" style="text;html=1;strokeColor=none;fillColor=none;align=center;verticalAlign=middle;whiteSpace=wrap;rounded=0;" vertex="1" parent="69">
                    <mxGeometry x="620" y="961" width="60" height="30" as="geometry"/>
                </mxCell>
                <mxCell id="154" value="&lt;font face=&quot;Times New Roman&quot; style=&quot;font-size: 40px&quot;&gt;100%&lt;/font&gt;" style="text;html=1;strokeColor=none;fillColor=none;align=center;verticalAlign=middle;whiteSpace=wrap;rounded=0;" vertex="1" parent="69">
                    <mxGeometry x="930" y="781" width="60" height="30" as="geometry"/>
                </mxCell>
                <mxCell id="155" value="&lt;font face=&quot;Times New Roman&quot; style=&quot;font-size: 40px&quot;&gt;100%&lt;/font&gt;" style="text;html=1;strokeColor=none;fillColor=none;align=center;verticalAlign=middle;whiteSpace=wrap;rounded=0;" vertex="1" parent="69">
                    <mxGeometry x="980" y="321" width="60" height="30" as="geometry"/>
                </mxCell>
                <mxCell id="156" value="&lt;font face=&quot;Times New Roman&quot; style=&quot;font-size: 40px&quot;&gt;100%&lt;/font&gt;" style="text;html=1;strokeColor=none;fillColor=none;align=center;verticalAlign=middle;whiteSpace=wrap;rounded=0;" vertex="1" parent="69">
                    <mxGeometry x="1510" y="431" width="60" height="30" as="geometry"/>
                </mxCell>
                <mxCell id="158" value="&lt;font face=&quot;Times New Roman&quot; style=&quot;font-size: 40px&quot;&gt;100%&lt;/font&gt;" style="text;html=1;strokeColor=none;fillColor=none;align=center;verticalAlign=middle;whiteSpace=wrap;rounded=0;" vertex="1" parent="69">
                    <mxGeometry x="1050" y="1201" width="60" height="30" as="geometry"/>
                </mxCell>
                <mxCell id="160" value="&lt;font face=&quot;Times New Roman&quot; style=&quot;font-size: 40px&quot;&gt;100%&lt;/font&gt;" style="text;html=1;strokeColor=none;fillColor=none;align=center;verticalAlign=middle;whiteSpace=wrap;rounded=0;" vertex="1" parent="69">
                    <mxGeometry x="1360" y="1371" width="60" height="30" as="geometry"/>
                </mxCell>
                <mxCell id="161" value="&lt;font face=&quot;Times New Roman&quot; style=&quot;font-size: 40px&quot;&gt;100%&lt;/font&gt;" style="text;html=1;strokeColor=none;fillColor=none;align=center;verticalAlign=middle;whiteSpace=wrap;rounded=0;" vertex="1" parent="69">
                    <mxGeometry x="1710" y="1421" width="60" height="30" as="geometry"/>
                </mxCell>
                <mxCell id="162" value="&lt;font face=&quot;Times New Roman&quot; style=&quot;font-size: 40px&quot;&gt;100%&lt;/font&gt;" style="text;html=1;strokeColor=none;fillColor=none;align=center;verticalAlign=middle;whiteSpace=wrap;rounded=0;" vertex="1" parent="69">
                    <mxGeometry x="1270" y="1581" width="60" height="30" as="geometry"/>
                </mxCell>
                <mxCell id="163" value="&lt;font face=&quot;Times New Roman&quot; style=&quot;font-size: 40px&quot;&gt;100%&lt;/font&gt;" style="text;html=1;strokeColor=none;fillColor=none;align=center;verticalAlign=middle;whiteSpace=wrap;rounded=0;" vertex="1" parent="69">
                    <mxGeometry x="1470" y="1631" width="60" height="30" as="geometry"/>
                </mxCell>
                <mxCell id="166" value="&lt;font face=&quot;Times New Roman&quot; style=&quot;font-size: 40px&quot;&gt;100%&lt;/font&gt;" style="text;html=1;strokeColor=none;fillColor=none;align=center;verticalAlign=middle;whiteSpace=wrap;rounded=0;" vertex="1" parent="69">
                    <mxGeometry x="750" y="1831" width="60" height="30" as="geometry"/>
                </mxCell>
                <mxCell id="167" value="&lt;font face=&quot;Times New Roman&quot; style=&quot;font-size: 40px&quot;&gt;100%&lt;/font&gt;" style="text;html=1;strokeColor=none;fillColor=none;align=center;verticalAlign=middle;whiteSpace=wrap;rounded=0;" vertex="1" parent="69">
                    <mxGeometry x="1050" y="1881" width="60" height="30" as="geometry"/>
                </mxCell>
                <mxCell id="168" value="&lt;font face=&quot;Times New Roman&quot; style=&quot;font-size: 40px&quot;&gt;100%&lt;/font&gt;" style="text;html=1;strokeColor=none;fillColor=none;align=center;verticalAlign=middle;whiteSpace=wrap;rounded=0;" vertex="1" parent="69">
                    <mxGeometry x="1295" y="1951" width="60" height="30" as="geometry"/>
                </mxCell>
                <mxCell id="169" value="&lt;font face=&quot;Times New Roman&quot; style=&quot;font-size: 40px&quot;&gt;100%&lt;/font&gt;" style="text;html=1;strokeColor=none;fillColor=none;align=center;verticalAlign=middle;whiteSpace=wrap;rounded=0;" vertex="1" parent="69">
                    <mxGeometry x="1730" y="1811" width="60" height="30" as="geometry"/>
                </mxCell>
                <mxCell id="171" value="&lt;font face=&quot;Times New Roman&quot; style=&quot;font-size: 40px&quot;&gt;100%&lt;/font&gt;" style="text;html=1;strokeColor=none;fillColor=none;align=center;verticalAlign=middle;whiteSpace=wrap;rounded=0;" vertex="1" parent="69">
                    <mxGeometry x="2050" y="991" width="60" height="30" as="geometry"/>
                </mxCell>
                <mxCell id="172" value="&lt;font face=&quot;Times New Roman&quot; style=&quot;font-size: 40px&quot;&gt;100%&lt;/font&gt;" style="text;html=1;strokeColor=none;fillColor=none;align=center;verticalAlign=middle;whiteSpace=wrap;rounded=0;" vertex="1" parent="69">
                    <mxGeometry x="1840" y="991" width="60" height="30" as="geometry"/>
                </mxCell>
                <mxCell id="121" value="" style="ellipse;whiteSpace=wrap;html=1;aspect=fixed;flipV=0;direction=north;rotation=0;strokeWidth=3;fillColor=none;" parent="1" vertex="1">
                    <mxGeometry x="640" y="-890" width="80" height="80" as="geometry"/>
                </mxCell>
                <mxCell id="125" value="" style="rhombus;whiteSpace=wrap;html=1;strokeWidth=2;fillColor=none;" vertex="1" parent="1">
                    <mxGeometry x="645" y="-885" width="70" height="70" as="geometry"/>
                </mxCell>
                <mxCell id="127" style="edgeStyle=none;html=1;exitX=1;exitY=1;exitDx=0;exitDy=0;entryX=0;entryY=0;entryDx=0;entryDy=0;strokeWidth=2;endSize=10;" edge="1" parent="1" source="55" target="61">
                    <mxGeometry relative="1" as="geometry">
                        <mxPoint x="210" y="150" as="sourcePoint"/>
                        <mxPoint x="140" y="-40" as="targetPoint"/>
                    </mxGeometry>
                </mxCell>
                <mxCell id="128" style="edgeStyle=none;html=1;exitX=1;exitY=0.5;exitDx=0;exitDy=0;entryX=0;entryY=0.5;entryDx=0;entryDy=0;strokeWidth=2;endSize=10;" edge="1" parent="1" source="51" target="53">
                    <mxGeometry relative="1" as="geometry">
                        <mxPoint x="-81.71572875246602" y="1.7157287524655658" as="sourcePoint"/>
                        <mxPoint x="111.71572875246602" y="-51.715728752466475" as="targetPoint"/>
                    </mxGeometry>
                </mxCell>
                <mxCell id="129" style="edgeStyle=none;html=1;entryX=0;entryY=0;entryDx=0;entryDy=0;strokeWidth=2;endSize=10;" edge="1" parent="1" target="51">
                    <mxGeometry relative="1" as="geometry">
                        <mxPoint x="8" y="462" as="sourcePoint"/>
                        <mxPoint x="210" y="230" as="targetPoint"/>
                    </mxGeometry>
                </mxCell>
                <mxCell id="130" style="edgeStyle=none;html=1;entryX=0;entryY=1;entryDx=0;entryDy=0;strokeWidth=2;exitX=0.5;exitY=0;exitDx=0;exitDy=0;endSize=10;" edge="1" parent="1" source="63" target="51">
                    <mxGeometry relative="1" as="geometry">
                        <mxPoint x="18" y="472" as="sourcePoint"/>
                        <mxPoint x="141.71572875253787" y="418.2842712474626" as="targetPoint"/>
                    </mxGeometry>
                </mxCell>
                <mxCell id="131" style="edgeStyle=none;html=1;entryX=0;entryY=0;entryDx=0;entryDy=0;strokeWidth=2;exitX=1;exitY=0.5;exitDx=0;exitDy=0;endSize=10;" edge="1" parent="1" source="64" target="52">
                    <mxGeometry relative="1" as="geometry">
                        <mxPoint x="340.000000000025" y="440" as="sourcePoint"/>
                        <mxPoint x="198.28427124746122" y="418.2842712474612" as="targetPoint"/>
                    </mxGeometry>
                </mxCell>
                <mxCell id="132" style="edgeStyle=none;html=1;entryX=0.5;entryY=1;entryDx=0;entryDy=0;strokeWidth=2;endSize=10;exitX=0.5;exitY=0;exitDx=0;exitDy=0;" edge="1" parent="1" source="65" target="64">
                    <mxGeometry relative="1" as="geometry">
                        <mxPoint x="130" y="730" as="sourcePoint"/>
                        <mxPoint x="-38.28427124746213" y="528.2842712474621" as="targetPoint"/>
                    </mxGeometry>
                </mxCell>
                <mxCell id="157" value="&lt;font face=&quot;Times New Roman&quot; style=&quot;font-size: 40px&quot;&gt;100%&lt;/font&gt;" style="text;html=1;strokeColor=none;fillColor=none;align=center;verticalAlign=middle;whiteSpace=wrap;rounded=0;" vertex="1" parent="1">
                    <mxGeometry x="420" y="-560" width="60" height="30" as="geometry"/>
                </mxCell>
                <mxCell id="159" value="&lt;font face=&quot;Times New Roman&quot; style=&quot;font-size: 40px&quot;&gt;100%&lt;/font&gt;" style="text;html=1;strokeColor=none;fillColor=none;align=center;verticalAlign=middle;whiteSpace=wrap;rounded=0;" vertex="1" parent="1">
                    <mxGeometry x="180" y="-70" width="60" height="30" as="geometry"/>
                </mxCell>
                <mxCell id="164" value="&lt;font face=&quot;Times New Roman&quot; style=&quot;font-size: 40px&quot;&gt;100%&lt;/font&gt;" style="text;html=1;strokeColor=none;fillColor=none;align=center;verticalAlign=middle;whiteSpace=wrap;rounded=0;" vertex="1" parent="1">
                    <mxGeometry y="530" width="60" height="30" as="geometry"/>
                </mxCell>
                <mxCell id="165" value="&lt;font face=&quot;Times New Roman&quot; style=&quot;font-size: 40px&quot;&gt;100%&lt;/font&gt;" style="text;html=1;strokeColor=none;fillColor=none;align=center;verticalAlign=middle;whiteSpace=wrap;rounded=0;" vertex="1" parent="1">
                    <mxGeometry x="-630" y="510" width="60" height="30" as="geometry"/>
                </mxCell>
            </root>
        </mxGraphModel>
    </diagram>
</mxfile>